<?xml version="1.0" encoding="UTF-8"?>
<svg version="1.1" xmlns="http://www.w3.org/2000/svg" width="1024" height="1024">
<path d="M0 0 C337.92 0 675.84 0 1024 0 C1024 337.92 1024 675.84 1024 1024 C686.08 1024 348.16 1024 0 1024 C0 686.08 0 348.16 0 0 Z " fill="#0B0B15" transform="translate(0,0)"/>
<path d="M0 0 C1.29570419 -0.01182816 2.59140839 -0.02365631 3.92637634 -0.0358429 C7.45356839 -0.06667092 10.98035026 -0.07217235 14.50766087 -0.07091117 C17.46690678 -0.071747 20.42606614 -0.08402824 23.38528514 -0.09586078 C30.37621637 -0.1231575 37.3669369 -0.12858594 44.35791016 -0.12109375 C51.53482187 -0.11386152 58.71074924 -0.14723823 65.8874476 -0.20015115 C72.0798029 -0.24413419 78.27184256 -0.26062998 84.46435142 -0.25611526 C88.14932306 -0.25380897 91.83349899 -0.26179238 95.51831818 -0.2971859 C126.07021518 -0.56842659 126.07021518 -0.56842659 138.13214111 9.6254425 C145.23233986 16.73391343 148.11247102 25.70969262 148.2364502 35.61308289 C148.22835327 36.55835342 148.22025635 37.50362396 148.21191406 38.47753906 C148.21892334 39.50671448 148.22593262 40.53588989 148.2331543 41.59625244 C148.25060786 44.96248199 148.23915708 48.32785528 148.22558594 51.6940918 C148.22828426 54.05338195 148.23216951 56.41267102 148.23718262 58.7719574 C148.2430604 63.70175834 148.23456921 68.6312682 148.21582031 73.56103516 C148.19301971 79.86112642 148.20617251 86.16053638 148.23011017 92.46060276 C148.24460376 97.3275409 148.23994596 102.19431902 148.229599 107.06126213 C148.22694223 109.38355529 148.23016427 111.70586327 148.23951721 114.02813911 C148.24974271 117.27989003 148.23409758 120.5305559 148.21191406 123.78222656 C148.22001099 124.72952133 148.22810791 125.6768161 148.2364502 126.65281677 C148.11252074 136.52125267 144.8187398 144.36497247 138.04589844 151.51831055 C130.33139335 158.23326182 122.70546069 160.75545201 112.63525391 160.56420898 C111.20108855 160.5414476 109.76691438 160.5192363 108.33273315 160.49749756 C107.57676723 160.48471519 106.82080132 160.47193283 106.04192734 160.45876312 C101.135939 160.38752377 96.22932658 160.38194162 91.32290459 160.36491013 C87.03714565 160.34637535 82.7540771 160.30506531 78.46923828 160.2121582 C51.31405595 159.34482443 51.31405595 159.34482443 28.5476532 172.87142944 C25.35292205 175.79111054 21.78756724 178.19851739 18.25683594 180.69018555 C13.83553781 183.93654055 13.83553781 183.93654055 9.53417969 187.33862305 C7.43368532 188.73895262 6.20139762 189.02601271 3.69433594 189.06518555 C2.70433594 189.1115918 2.70433594 189.1115918 1.69433594 189.15893555 C-1.73820416 188.13990021 -2.58120718 186.6974402 -4.30566406 183.56518555 C-4.78957564 179.61499433 -4.68183493 175.72464163 -4.55566406 171.75268555 C-4.53761719 170.67825195 -4.51957031 169.60381836 -4.50097656 168.49682617 C-4.45395798 165.8520309 -4.38825566 163.20906965 -4.30566406 160.56518555 C-5.51480469 160.59483398 -6.72394531 160.62448242 -7.96972656 160.6550293 C-17.43895231 160.63628248 -24.43785049 156.46535649 -31.13769531 150.01049805 C-36.36938013 144.10953464 -39.39699841 137.93881 -39.46629333 130.02685547 C-39.48136177 128.66890617 -39.48136177 128.66890617 -39.49673462 127.28352356 C-39.50256561 126.2975267 -39.50839661 125.31152985 -39.5144043 124.2956543 C-39.52418808 123.25120651 -39.53397186 122.20675873 -39.54405212 121.13066101 C-39.5739827 117.67134875 -39.59538904 114.21207522 -39.61425781 110.75268555 C-39.62082964 109.56878235 -39.62740147 108.38487915 -39.63417244 107.1651001 C-39.66676092 100.89433995 -39.69120925 94.62359673 -39.71069336 88.3527832 C-39.72847987 83.17512113 -39.76325972 77.99800638 -39.81323242 72.82055664 C-39.87359437 66.55889382 -39.90419179 60.29773702 -39.91386604 54.03579712 C-39.92239687 51.65648511 -39.94115578 49.27718576 -39.97060966 46.89804077 C-40.2655269 21.71331765 -40.2655269 21.71331765 -30.74316406 10.56518555 C-29.93878906 9.90518555 -29.13441406 9.24518555 -28.30566406 8.56518555 C-27.58378906 7.88456055 -26.86191406 7.20393555 -26.11816406 6.50268555 C-17.84994086 0.80679845 -9.84057735 -0.02764727 0 0 Z " fill="#632AFE" transform="translate(188.3056640625,421.434814453125)"/>
<path d="M0 0 C53.32394366 0 53.32394366 0 64.7890625 10.6640625 C72.04760887 18.49471105 72.6170345 26.68896561 72.26953125 36.9375 C71.77000236 45.94957671 68.79098551 51.2013216 62.546875 57.76171875 C55.89132909 63.61084115 48.66472 66.14051333 39.921875 66.09765625 C38.87612305 66.09515869 37.83037109 66.09266113 36.75292969 66.09008789 C35.43196289 66.08098389 34.11099609 66.07187988 32.75 66.0625 C28.5425 66.041875 24.335 66.02125 20 66 C20 77.55 20 89.1 20 101 C13.4 101 6.8 101 0 101 C0 67.67 0 34.34 0 0 Z " fill="#FBFBFB" transform="translate(374,456)"/>
<path d="M0 0 C52.13842482 0 52.13842482 0 64 10 C70.23225063 16.75033504 71.36167266 23.88984518 71.375 32.8125 C71.39949219 33.66392578 71.42398438 34.51535156 71.44921875 35.39257812 C71.48854208 43.99783425 68.59558797 51.07655465 62.76953125 57.43359375 C56.33608164 63.12854583 48.28001371 66.28000014 39.7265625 66.1953125 C38.68580566 66.19031738 37.64504883 66.18532227 36.57275391 66.18017578 C35.26999512 66.16196777 33.96723633 66.14375977 32.625 66.125 C28.45875 66.08375 24.2925 66.0425 20 66 C20 77.55 20 89.1 20 101 C13.4 101 6.8 101 0 101 C0 67.67 0 34.34 0 0 Z " fill="#FCFCFC" transform="translate(692,456)"/>
<path d="M0 0 C4.70877906 3.79989768 7.72168378 8.54005135 9.625 14.25 C9.71299471 16.01408128 9.74264257 17.78133766 9.73852539 19.54760742 C9.73841209 21.16894844 9.73841209 21.16894844 9.73829651 22.82304382 C9.73313522 23.98874405 9.72797394 25.15444427 9.72265625 26.35546875 C9.7212413 27.54981033 9.71982635 28.74415192 9.71836853 29.97468567 C9.7127635 33.79564908 9.70021011 37.61655425 9.6875 41.4375 C9.68248565 44.02538978 9.67792263 46.61328048 9.67382812 49.20117188 C9.66279242 55.55080375 9.64552437 61.90039199 9.625 68.25 C3.685 68.25 -2.255 68.25 -8.375 68.25 C-8.87 64.785 -8.87 64.785 -9.375 61.25 C-9.94347656 61.65992188 -10.51195312 62.06984375 -11.09765625 62.4921875 C-20.23604572 68.86922723 -28.79268375 70.7297097 -39.8671875 68.8203125 C-47.153241 66.77820062 -52.48752445 62.37613137 -56.375 55.9375 C-58.06888353 49.69130447 -58.45882439 43.94451643 -55.75 37.9375 C-51.84766719 31.21681572 -47.31843911 29.03512637 -40.14794922 26.97045898 C-35.72041574 25.8201111 -31.25211037 24.98721697 -26.75 24.1875 C-20.55919447 23.07046335 -14.46169178 21.84616043 -8.375 20.25 C-8.9628125 18.6103125 -8.9628125 18.6103125 -9.5625 16.9375 C-9.78292969 16.32261719 -10.00335937 15.70773437 -10.23046875 15.07421875 C-11.86985444 12.46127296 -13.59617738 11.55097636 -16.375 10.25 C-19.32424807 9.77917564 -19.32424807 9.77917564 -22.375 9.875 C-23.385625 9.86726563 -24.39625 9.85953125 -25.4375 9.8515625 C-28.85967569 10.31574059 -30.64853559 11.1406745 -33.375 13.25 C-33.78363281 14.13042969 -34.19226563 15.01085937 -34.61328125 15.91796875 C-36.375 18.25 -36.375 18.25 -38.29052734 18.65087891 C-40.73228652 18.74306935 -43.12218369 18.68517638 -45.5625 18.5625 C-46.40748047 18.53994141 -47.25246094 18.51738281 -48.12304688 18.49414062 C-50.20778798 18.43524963 -52.29161804 18.34556798 -54.375 18.25 C-52.28285211 9.22172216 -49.40378481 2.8722199 -41.51953125 -2.49609375 C-28.49064909 -10.11407403 -12.24132499 -8.34324944 0 0 Z " fill="#FBFBFC" transform="translate(825.375,488.75)"/>
<path d="M0 0 C6.27 0 12.54 0 19 0 C19.33 11.88 19.66 23.76 20 36 C22.31 34.02 24.62 32.04 27 30 C33.92740313 26.37081681 41.07557038 25.98920518 48.5 28.125 C56.32906992 31.01864588 61.50317292 35.4468535 65 43 C65.9925692 46.15720251 66.12138704 49.01744345 66.11352539 52.31933594 C66.11341209 53.91053253 66.11341209 53.91053253 66.11329651 55.53387451 C66.10813522 56.67253967 66.10297394 57.81120483 66.09765625 58.984375 C66.0962413 60.15510559 66.09482635 61.32583618 66.09336853 62.53204346 C66.0877709 66.27138829 66.0752188 70.01067326 66.0625 73.75 C66.0574847 76.28515539 66.05292184 78.82031171 66.04882812 81.35546875 C66.03780223 87.57033557 66.02053919 93.78515763 66 100 C60.06 100 54.12 100 48 100 C47.98541748 98.6682373 47.97083496 97.33647461 47.95581055 95.96435547 C47.89771899 91.0104728 47.82048627 86.05703949 47.73754883 81.10351562 C47.70435062 78.9619884 47.67630286 76.82037476 47.65356445 74.67871094 C47.61992496 71.59532946 47.56760346 68.51273631 47.51171875 65.4296875 C47.50532883 64.47633514 47.4989389 63.52298279 47.49235535 62.54074097 C47.37708428 57.29680185 46.9542645 53.51911874 44 49 C39.89736682 45.28809379 36.55914192 44.35064795 31.1796875 44.61328125 C26.8317821 45.38468382 24.12040754 47.64662814 21.36791992 50.97143555 C19.31825118 55.50938677 19.51969205 59.842739 19.48828125 64.76953125 C19.47033005 65.80567062 19.45237885 66.84181 19.43388367 67.90934753 C19.37981314 71.21035729 19.34589477 74.51122269 19.3125 77.8125 C19.27932412 80.05405653 19.24483422 82.29559402 19.20898438 84.53710938 C19.1240882 90.0246354 19.057261 95.51211884 19 101 C12.73 101 6.46 101 0 101 C0 67.67 0 34.34 0 0 Z " fill="#FDFDFD" transform="translate(612,456)"/>
<path d="M0 0 C7.48749585 6.0475928 9.60995113 10.61978006 11.75 20.25 C5.48 20.25 -0.79 20.25 -7.25 20.25 C-8.24 18.27 -9.23 16.29 -10.25 14.25 C-13.45887401 11.24168062 -16.44066082 10.99113231 -20.6875 10.8125 C-25.66762684 10.97984297 -28.57632044 11.66592238 -32.25 15.25 C-37.10582422 21.0343674 -36.94041488 28.25341477 -36.640625 35.44921875 C-36.03995761 41.29371243 -34.55352303 45.08608443 -30.1875 49.1875 C-25.9836293 51.49284845 -21.93505082 51.71420687 -17.25 51.25 C-13.41738737 50.28646571 -13.41738737 50.28646571 -10.25 48.25 C-9.26 46.27 -8.27 44.29 -7.25 42.25 C-0.98 42.25 5.29 42.25 11.75 42.25 C9.27093359 52.16626564 5.45385629 59.08506095 -3.06640625 64.99609375 C-11.45621817 69.81385695 -21.65773077 70.89574281 -31.01953125 68.55859375 C-40.75934084 64.98284184 -48.76255128 58.61995999 -53.25 49.13671875 C-58.12066875 36.70246342 -57.5148303 23.45259733 -52.25 11.25 C-47.99627572 3.49244812 -40.88010083 -2.77623121 -32.5 -5.6875 C-20.53659979 -8.65977334 -10.08647815 -6.97854632 0 0 Z " fill="#FCFBFC" transform="translate(591.25,488.75)"/>
<path d="M0 0 C6.27 0 12.54 0 19 0 C19 5.94 19 11.88 19 18 C24.61 18 30.22 18 36 18 C36 23.28 36 28.56 36 34 C30.39 34 24.78 34 19 34 C19.05106137 39.05507565 19.1139973 44.10707566 19.20751953 49.16113281 C19.23572067 50.87978169 19.25693954 52.59856005 19.27099609 54.31738281 C19.29243833 56.79038747 19.33909156 59.26183675 19.390625 61.734375 C19.39185364 62.50118591 19.39308228 63.26799683 19.39434814 64.05804443 C19.49081022 67.58240807 19.71740834 69.62409978 21.86328125 72.47851562 C24.57236844 74.407564 26.44897237 74.59280821 29.75 74.75 C31.4825 74.8325 33.215 74.915 35 75 C35 80.61 35 86.22 35 92 C14.14624549 92.77812517 14.14624549 92.77812517 7 87 C1.22632301 81.19876369 -0.22813131 74.20651886 -0.22659302 66.26075745 C-0.21627045 65.44380905 -0.20594788 64.62686066 -0.1953125 63.78515625 C-0.1924826 62.92941513 -0.18965271 62.07367401 -0.18673706 61.19200134 C-0.17561935 58.48202009 -0.15053082 55.77237991 -0.125 53.0625 C-0.11495931 51.21549959 -0.10583537 49.36849396 -0.09765625 47.52148438 C-0.07570763 43.01419323 -0.04123654 38.50715427 0 34 C-4.29 34 -8.58 34 -13 34 C-13 28.72 -13 23.44 -13 18 C-8.71 18 -4.42 18 0 18 C0 12.06 0 6.12 0 0 Z " fill="#FAFAFA" transform="translate(494,465)"/>
<path d="M0 0 C6.6 0 13.2 0 20 0 C20 33.33 20 66.66 20 101 C13.4 101 6.8 101 0 101 C0 67.67 0 34.34 0 0 Z " fill="#F6F6F6" transform="translate(846,456)"/>
<path d="M0 0 C2.1502533 1.50294495 2.1502533 1.50294495 4 4 C4.39970394 6.94202911 4.55742689 9.51093639 4.53344727 12.45288086 C4.54206284 13.30374771 4.55067841 14.15461456 4.55955505 15.03126526 C4.58225016 17.84276791 4.5754695 20.65327661 4.56640625 23.46484375 C4.57164052 25.42013343 4.57791627 27.37542058 4.58518982 29.33070374 C4.59560076 33.42884196 4.59102295 37.52663312 4.57641602 41.62475586 C4.55923302 46.87533159 4.5827139 52.12481254 4.61790562 57.37526608 C4.63987235 61.41336818 4.63843979 65.45120809 4.6301403 69.48935127 C4.62932027 71.42503624 4.63619354 73.36074036 4.65091133 75.29636955 C4.66834263 78.00417098 4.65382711 80.71000226 4.63110352 83.41772461 C4.64279572 84.21632904 4.65448792 85.01493347 4.66653442 85.83773804 C4.59782165 89.86439414 4.15692802 91.79424713 1.68711853 95.03248596 C-1 97 -1 97 -4.625 97.0625 C-8.44740618 95.85914991 -9.15431434 95.45601428 -11 92 C-11.30082179 89.10555626 -11.43049661 86.42589418 -11.41992188 83.53125 C-11.42839142 82.67877686 -11.43686096 81.82630371 -11.44558716 80.94799805 C-11.46897491 78.13184672 -11.46997901 75.31624107 -11.46875 72.5 C-11.47584974 70.54231548 -11.48354846 68.58463304 -11.49182129 66.62695312 C-11.50526962 62.52468072 -11.50683293 58.42260079 -11.50097656 54.3203125 C-11.49507558 49.06070922 -11.5256869 43.80202746 -11.56609344 38.54260254 C-11.59192711 34.50027481 -11.59485189 30.45817038 -11.59120178 26.41577148 C-11.59289663 24.47645753 -11.60257411 22.53713365 -11.62034607 20.59790039 C-11.642454 17.88755334 -11.63287682 15.17908997 -11.61523438 12.46875 C-11.62849762 11.66655029 -11.64176086 10.86435059 -11.65542603 10.0378418 C-11.59645817 6.14394979 -11.36369538 4.38709431 -8.6529541 1.50195312 C-5.40884015 -0.3346814 -3.6713128 -0.62490431 0 0 Z " fill="#FDFDFE" transform="translate(246,455)"/>
<path d="M0 0 C6.27 0 12.54 0 19 0 C19 24.42 19 48.84 19 74 C12.73 74 6.46 74 0 74 C0 49.58 0 25.16 0 0 Z " fill="#FCFCFD" transform="translate(454,483)"/>
<path d="M0 0 C4.10296672 0.5861381 4.997718 1.2908406 7.5 4.5 C8.00793457 7.15600586 8.00793457 7.15600586 8.01757812 10.21484375 C8.03018677 11.36283447 8.04279541 12.5108252 8.05578613 13.69360352 C8.04768921 14.92908936 8.03959229 16.1645752 8.03125 17.4375 C8.0350769 18.70972412 8.03890381 19.98194824 8.04284668 21.29272461 C8.04556927 23.98313827 8.04019814 26.67209871 8.02148438 29.36230469 C7.99869362 32.80594745 8.01181969 36.24834327 8.03577423 39.69194031 C8.05372552 42.98217128 8.0411472 46.27225275 8.03125 49.5625 C8.03934692 50.79798584 8.04744385 52.03347168 8.05578613 53.30639648 C8.04317749 54.45438721 8.03056885 55.60237793 8.01757812 56.78515625 C8.01439575 57.79457275 8.01121338 58.80398926 8.00793457 59.84399414 C7.35951116 63.23462058 6.21373493 64.42216176 3.5 66.5 C0 67 0 67 -3.5 66.5 C-6.21373493 64.42216176 -7.35951116 63.23462058 -8.00793457 59.84399414 C-8.01111694 58.83457764 -8.01429932 57.82516113 -8.01757812 56.78515625 C-8.03018677 55.63716553 -8.04279541 54.4891748 -8.05578613 53.30639648 C-8.04768921 52.07091064 -8.03959229 50.8354248 -8.03125 49.5625 C-8.0350769 48.29027588 -8.03890381 47.01805176 -8.04284668 45.70727539 C-8.04556927 43.01686173 -8.04019814 40.32790129 -8.02148438 37.63769531 C-7.99869362 34.19405255 -8.01181969 30.75165673 -8.03577423 27.30805969 C-8.05372552 24.01782872 -8.0411472 20.72774725 -8.03125 17.4375 C-8.03934692 16.20201416 -8.04744385 14.96652832 -8.05578613 13.69360352 C-8.04317749 12.54561279 -8.03056885 11.39762207 -8.01757812 10.21484375 C-8.01439575 9.20542725 -8.01121338 8.19601074 -8.00793457 7.15600586 C-7.08905066 2.35113297 -4.69776773 0.67110968 0 0 Z " fill="#FDFDFE" transform="translate(269.5,470.5)"/>
<path d="M0 0 C3.155625 -0.061875 6.31125 -0.12375 9.5625 -0.1875 C10.5429126 -0.21481201 11.5233252 -0.24212402 12.53344727 -0.27026367 C19.68764267 -0.33772187 24.43738522 0.66022129 29.875 5.625 C32.52009113 9.82602708 33.29230585 13.06518952 33 18 C31.46373463 23.20623265 29.64056932 26.15237791 25 29 C19.40659832 30.99207335 14.46250325 31.24763412 8.5625 31.125 C5.736875 31.08375 2.91125 31.0425 0 31 C0 20.77 0 10.54 0 0 Z " fill="#0B0B13" transform="translate(711,474)"/>
<path d="M0 0 C4.455 -0.0928125 4.455 -0.0928125 9 -0.1875 C9.91910156 -0.21481201 10.83820313 -0.24212402 11.78515625 -0.27026367 C18.89997691 -0.34119831 24.46630162 0.735844 29.9375 5.625 C32.50659476 9.82897325 33.29033017 13.09854353 33 18 C31.46373463 23.20623265 29.64056932 26.15237791 25 29 C19.40659832 30.99207335 14.46250325 31.24763412 8.5625 31.125 C5.736875 31.08375 2.91125 31.0425 0 31 C0 20.77 0 10.54 0 0 Z " fill="#0B0B0F" transform="translate(394,474)"/>
<path d="M0 0 C2.8169164 2.82813788 3.3808792 4.94721558 3.41992188 8.87280273 C3.43583374 9.837379 3.45174561 10.80195526 3.46813965 11.79576111 C3.46834106 12.83124588 3.46854248 13.86673065 3.46875 14.93359375 C3.47636353 16.00368179 3.48397705 17.07376984 3.49182129 18.17628479 C3.5026215 20.43821887 3.50547573 22.70020281 3.50097656 24.9621582 C3.50000447 28.42158222 3.54162474 31.87878698 3.5859375 35.33789062 C3.59114468 37.53645371 3.59383269 39.7350245 3.59375 41.93359375 C3.6183429 43.48378456 3.6183429 43.48378456 3.64343262 45.06529236 C3.59751471 49.84058048 3.55153754 52.23813924 0.68945312 56.19165039 C-2 58 -2 58 -5.625 58 C-8.95710989 57.01270818 -9.9833219 56.67242919 -12 54 C-12.38768005 51.76795959 -12.38768005 51.76795959 -12.40405273 49.13305664 C-12.41673691 48.1451564 -12.42942108 47.15725616 -12.44248962 46.13941956 C-12.43955399 45.07376266 -12.43661835 44.00810577 -12.43359375 42.91015625 C-12.4388356 41.81408554 -12.44407745 40.71801483 -12.44947815 39.58872986 C-12.45590481 37.2695297 -12.45455307 34.95029697 -12.44604492 32.63110352 C-12.43754107 29.07965083 -12.46627953 25.52980906 -12.49804688 21.97851562 C-12.49965907 19.72656298 -12.49908101 17.47460749 -12.49609375 15.22265625 C-12.50732773 14.15902359 -12.51856171 13.09539093 -12.53013611 11.99952698 C-12.46052485 4.64543166 -12.46052485 4.64543166 -10.09619141 1.33178711 C-6.47152098 -0.97109866 -4.23794347 -0.53815155 0 0 Z " fill="#FEFDFE" transform="translate(220,475)"/>
<path d="M0 0 C0.43131786 5.38668086 0.76002313 9.60662426 -1.875 14.4375 C-6.40506246 18.86489815 -13.00194799 21.14022733 -19.25 21.5 C-23.53026113 20.92929852 -25.69866673 19.73769101 -29 17 C-30.44430855 14.11138291 -30.37688506 12.20352299 -30 9 C-25.84095715 3.29766452 -21.00792193 2.72635521 -14.4375 1.6875 C-13.01920898 1.43516602 -13.01920898 1.43516602 -11.57226562 1.17773438 C-7.62410719 0.49413097 -4.02172829 0 0 0 Z " fill="#0E0D17" transform="translate(817,523)"/>
<path d="M0 0 C4.03026997 4.24472684 3.48111037 8.44958918 3.4375 14 C3.45748047 14.90234375 3.47746094 15.8046875 3.49804688 16.734375 C3.49320723 23.2775709 3.49320723 23.2775709 1.2265625 26.59765625 C-2.46093891 28.92013521 -4.69242004 28.47862 -9 28 C-11.28478847 26.38030851 -11.9133221 25.47405758 -12.41992188 22.70336914 C-12.47264974 19.82205497 -12.50738467 16.9443657 -12.5 14.0625 C-12.52835937 13.06025391 -12.55671875 12.05800781 -12.5859375 11.02539062 C-12.60546606 3.70706122 -12.60546606 3.70706122 -9.6953125 0.30859375 C-5.99663038 -1.48714322 -3.90267948 -1.15634948 0 0 Z " fill="#FCFBFE" transform="translate(300,491)"/>
<path d="M0 0 C3.48948949 2.25548535 5.5224682 5.02271989 6.5 9.0703125 C6.7226508 12.73013495 6.08550757 14.86603815 4.125 17.9375 C0.65243726 21.30792855 -1.98862469 21.38958952 -6.671875 21.359375 C-10.59004236 20.75455722 -12.30358816 18.83123243 -15 16 C-16.53214888 12.93570224 -16.22938548 10.3834358 -16 7 C-12.66000437 -0.15713349 -7.40359056 -1.48071811 0 0 Z " fill="#FBFBFB" transform="translate(468,453)"/>
<path d="M0 0 C3.75603027 0.71923984 4.69694613 1.45983027 6.9375 4.5625 C7.53256415 7.73883033 7.4958324 10.83963473 7.4375 14.0625 C7.45296875 14.91714844 7.4684375 15.77179688 7.484375 16.65234375 C7.44564496 22.85883203 7.44564496 22.85883203 5.08984375 26.12109375 C2.0932063 28.12791629 0.47488038 28.21222293 -3.0625 27.5625 C-5.70958201 25.56256911 -7.71370717 23.9567865 -8.54370117 20.63891602 C-8.73568739 18.42607615 -8.74501388 16.28253594 -8.6875 14.0625 C-8.70683594 13.31613281 -8.72617188 12.56976563 -8.74609375 11.80078125 C-8.7089855 7.60754937 -8.38657568 5.97608743 -5.71484375 2.56640625 C-3.0625 0.5625 -3.0625 0.5625 0 0 Z " fill="#FAF8FE" transform="translate(190.0625,490.4375)"/>
<path d="M0 0 C0.33 0 0.66 0 1 0 C1 33.66 1 67.32 1 102 C7.6 102 14.2 102 21 102 C21 90.45 21 78.9 21 67 C29.58 67 38.16 67 47 67 C45 69 45 69 42.75341797 69.22705078 C41.38660889 69.21134033 41.38660889 69.21134033 39.9921875 69.1953125 C38.51298828 69.18564453 38.51298828 69.18564453 37.00390625 69.17578125 C35.45509766 69.15064453 35.45509766 69.15064453 33.875 69.125 C32.31458984 69.11146484 32.31458984 69.11146484 30.72265625 69.09765625 C28.14820908 69.07403747 25.57421788 69.04110149 23 69 C23.00785522 70.49164673 23.00785522 70.49164673 23.01586914 72.01342773 C23.03392041 75.69033921 23.04543246 79.36724675 23.05493164 83.04418945 C23.05997157 84.63794614 23.0668035 86.23169819 23.07543945 87.82543945 C23.08751999 90.11150253 23.09323155 92.39750467 23.09765625 94.68359375 C23.10281754 95.40026718 23.10797882 96.11694061 23.11329651 96.85533142 C23.11349263 98.57063672 23.06192007 100.28581266 23 102 C22.67 102.33 22.34 102.66 22 103 C14.74 103 7.48 103 0 103 C0 69.01 0 35.02 0 0 Z " fill="#000001" transform="translate(373,455)"/>
<path d="M0 0 C0.33 0 0.66 0 1 0 C1.09285115 13.25676461 1.16384191 26.51345131 1.20724869 39.77047539 C1.22808616 45.92685339 1.25633405 52.08300822 1.30175781 58.23925781 C1.34535188 64.18502102 1.36916597 70.13057012 1.37950897 76.07648087 C1.38687597 78.34019463 1.40126186 80.60389724 1.42292023 82.86751938 C1.45213387 86.04848932 1.45594843 89.22858458 1.45410156 92.40966797 C1.46848267 93.33684128 1.48286377 94.26401459 1.49768066 95.21928406 C1.45731784 101.68188222 0.24399156 107.33853429 -3 113 C-4.485 113.99 -4.485 113.99 -6 115 C-6 113.68 -6 112.36 -6 111 C-5.34 111 -4.68 111 -4 111 C-2.19946771 104.82288185 -1.70116352 99.26764352 -1.69702148 92.85205078 C-1.68436249 91.3774514 -1.68436249 91.3774514 -1.67144775 89.87306213 C-1.64580635 86.64714031 -1.63356444 83.42130967 -1.62109375 80.1953125 C-1.60491021 77.9470854 -1.58772932 75.69886529 -1.56959534 73.45065308 C-1.52402409 67.54963396 -1.48915123 61.64860546 -1.45739746 55.74749756 C-1.40540111 46.28113147 -1.34049327 36.81486733 -1.26918221 27.348629 C-1.24631096 24.03924225 -1.23006966 20.72986865 -1.21446228 17.42044067 C-1.20106169 15.40415295 -1.18744742 13.38786663 -1.17358398 11.37158203 C-1.16966393 9.98458351 -1.16966393 9.98458351 -1.16566467 8.56956482 C-1.15876617 7.72854721 -1.15186768 6.8875296 -1.14476013 6.02102661 C-1.14090522 5.28845201 -1.1370503 4.55587742 -1.13307858 3.80110359 C-1 2 -1 2 0 0 Z " fill="#6B30F8" transform="translate(335,453)"/>
<path d="M0 0 C3.09375 -0.020625 6.1875 -0.04125 9.375 -0.0625 C10.34872559 -0.071604 11.32245117 -0.08070801 12.32568359 -0.09008789 C13.47544678 -0.09383423 13.47544678 -0.09383423 14.6484375 -0.09765625 C15.43395996 -0.10289307 16.21948242 -0.10812988 17.02880859 -0.11352539 C19 0 19 0 21 1 C21 1.66 21 2.32 21 3 C15.06 3 9.12 3 3 3 C2.67 11.58 2.34 20.16 2 29 C7.61 29 13.22 29 19 29 C18.67 29.66 18.34 30.32 18 31 C12.06 31 6.12 31 0 31 C0 20.77 0 10.54 0 0 Z " fill="#151517" transform="translate(394,474)"/>
<path d="M0 0 C4.888125 -0.061875 4.888125 -0.061875 9.875 -0.125 C10.90093262 -0.14320801 11.92686523 -0.16141602 12.98388672 -0.18017578 C13.79100098 -0.1851709 14.59811523 -0.19016602 15.4296875 -0.1953125 C16.25710449 -0.20578613 17.08452148 -0.21625977 17.93701172 -0.22705078 C20 0 20 0 22 2 C21 3 21 3 19.23413086 3.11352539 C18.48526611 3.10828857 17.73640137 3.10305176 16.96484375 3.09765625 C15.87224243 3.09390991 15.87224243 3.09390991 14.75756836 3.09008789 C13.8269458 3.08098389 12.89632324 3.07187988 11.9375 3.0625 C7.5134375 3.0315625 7.5134375 3.0315625 3 3 C2.67 11.58 2.34 20.16 2 29 C8.27 29 14.54 29 21 29 C17.89914429 31.06723714 17.27068319 31.24497423 13.76953125 31.1953125 C13.04612549 31.19031738 12.32271973 31.18532227 11.57739258 31.18017578 C10.66497803 31.16196777 9.75256348 31.14375977 8.8125 31.125 C5.904375 31.08375 2.99625 31.0425 0 31 C0 20.77 0 10.54 0 0 Z " fill="#2B2B2E" transform="translate(711,474)"/>
<path d="M0 0 C6.93 0 13.86 0 21 0 C21.33 11.22 21.66 22.44 22 34 C22.99 34 23.98 34 25 34 C22.03 36.475 22.03 36.475 19 39 C19 26.46 19 13.92 19 1 C12.73 1 6.46 1 0 1 C0 0.67 0 0.34 0 0 Z " fill="#020202" transform="translate(612,454)"/>
<path d="M0 0 C1.5 1.375 1.5 1.375 3 3 C3 3.66 3 4.32 3 5 C9.27 5 15.54 5 22 5 C22.33 4.01 22.66 3.02 23 2 C23.33 3.65 23.66 5.3 24 7 C20.59807562 8.70096219 16.87602241 8.3523829 13.125 8.4375 C12.30902344 8.48326172 11.49304688 8.52902344 10.65234375 8.57617188 C8.29005065 8.62048896 6.29204553 8.58118518 4 8 C0 3.48328267 0 3.48328267 0 0 Z " fill="#131316" transform="translate(581,504)"/>
<path d="M0 0 C0.50789062 0.39832031 1.01578125 0.79664063 1.5390625 1.20703125 C9.8618633 7.61278243 16.58190264 9.68614499 27 11 C27 11.33 27 11.66 27 12 C17.24771685 12.6562284 10.55560536 11.10383164 2.9375 4.875 C1.21484375 3.3671875 1.21484375 3.3671875 0 2 C0 1.34 0 0.68 0 0 Z " fill="#7032F3" transform="translate(157,569)"/>
<path d="M0 0 C0.79596365 2.69138789 1.04361747 3.83346058 0.3125 6.625 C-1.16625774 9.30084735 -2.17750049 9.96508351 -5 11 C-5 7.58678765 -4.33132534 6.60527115 -2.5 3.8125 C-2.0359375 3.09707031 -1.571875 2.38164063 -1.09375 1.64453125 C-0.7328125 1.10183594 -0.371875 0.55914063 0 0 Z " fill="#060709" transform="translate(334,561)"/>
<path d="M0 0 C2.97 0 5.94 0 9 0 C9.33 0.66 9.66 1.32 10 2 C6.78548731 3.60725635 3.56387464 3.05748185 0 3 C0 2.01 0 1.02 0 0 Z " fill="#232329" transform="translate(794,541)"/>
<path d="M0 0 C5.62917348 0.40208382 8.00386479 2.28930302 12 6 C11.67 6.66 11.34 7.32 11 8 C9.34838419 7.24163557 7.70382862 6.46787924 6.0625 5.6875 C5.14597656 5.25824219 4.22945312 4.82898438 3.28515625 4.38671875 C1 3 1 3 0 0 Z " fill="#16161B" transform="translate(813,481)"/>
<path d="M0 0 C0.66 0.33 1.32 0.66 2 1 C1.57576756 2.46224799 1.13509755 3.91973412 0.6875 5.375 C0.44386719 6.18710937 0.20023437 6.99921875 -0.05078125 7.8359375 C-1 10 -1 10 -4 12 C-4 10.68 -4 9.36 -4 8 C-3.34 8 -2.68 8 -2 8 C-1.34 5.36 -0.68 2.72 0 0 Z " fill="#6B32F2" transform="translate(333,556)"/>
<path d="M0 0 C4.81430721 -0.56638908 7.20307814 1.17438373 11 4 C10.67 4.99 10.34 5.98 10 7 C9.649375 6.525625 9.29875 6.05125 8.9375 5.5625 C6.15836457 3.32126175 3.4855283 3.32882342 0 3 C0 2.01 0 1.02 0 0 Z " fill="#1F2021" transform="translate(461,450)"/>
<path d="M0 0 C0.33 0.99 0.66 1.98 1 3 C-1.31 3.66 -3.62 4.32 -6 5 C-6.33 4.01 -6.66 3.02 -7 2 C-4.69 1.34 -2.38 0.68 0 0 Z " fill="#1B1A22" transform="translate(807,555)"/>
</svg>
